<svg id="Capa_1" enable-background="new 0 0 511.997 511.997" height="512" viewBox="0 0 511.997 511.997" width="512" xmlns="http://www.w3.org/2000/svg"><g><path d="m65.891 381.458 64.642 64.641c70.749 70.75 179.644 85.686 266.466 39.198 2.529-1.207 14.039-7.746 24.375-15.143 22.39-16.021 24.823-48.799 5.209-68.414l-61.707-61.707c-17.544-17.544-46.094-17.546-63.64 0l-21.213 21.213c-17.585 17.586-46.05 17.588-63.64 0l-65.64-65.64c-17.584-17.584-17.59-46.043-.005-63.634.001-.001.002-.001.002-.002l.005-.005 21.211-21.211c17.546-17.546 17.546-46.094 0-63.64l-61.706-61.707c-19.607-19.607-52.389-17.189-68.414 5.208-63.032 88.087-54.679 212.11 24.055 290.843zm277.772-20.211 61.707 61.706c6.464 6.466 5.926 17.524-1.453 22.804-3.574 2.557-7.216 4.975-10.919 7.256l-81.158-81.158 10.609-10.609c5.851-5.849 15.366-5.847 21.214.001zm-148.492 21.212c25.887 25.886 65.567 28.69 94.396 9.55l75.273 75.273c-71.463 29.104-156.916 13.784-213.096-42.397l-64.642-64.641c-56.179-56.18-71.5-141.633-42.396-213.096l75.273 75.273c-19.12 28.799-16.365 68.482 9.551 94.397zm-106.134-275.838 61.707 61.707c5.862 5.863 5.863 15.351 0 21.213l-10.609 10.609-81.158-81.158c2.281-3.703 4.699-7.345 7.256-10.919 5.272-7.366 16.331-7.925 22.804-1.452z"/><path d="m301.99 30c99.252 0 180 80.748 180 180 0 8.284 6.716 15 15 15s15-6.716 15-15c0-115.794-94.206-210-210-210-8.284 0-15 6.716-15 15s6.716 15 15 15z"/><path d="m301.99 209.986s.001.004.001.014c0 8.284 6.716 15 15 15s15-6.716 15-15c0-16.542-13.458-30-30-30-8.284 0-15 6.709-15 14.993-.001 8.284 6.714 14.993 14.999 14.993z"/><path d="m301.99 150c33.084 0 60 26.916 60 60 0 8.284 6.716 15 15 15s15-6.716 15-15c0-49.626-40.374-90-90-90-8.284 0-15 6.716-15 15s6.716 15 15 15z"/><path d="m301.99 90c66.168 0 120 53.832 120 120 0 8.284 6.716 15 15 15s15-6.716 15-15c0-82.71-67.29-150-150-150-8.284 0-15 6.716-15 15s6.716 15 15 15z"/></g></svg>